<svg xmlns="http://www.w3.org/2000/svg" viewBox="0 0 1123.19 986.55"><defs><style>.cls-1,.cls-2{fill:none;}.cls-2{opacity:0.33;}.cls-3{fill:#1d71b8;}.cls-4{fill:#2899e5;}</style></defs><g id="Laag_3" data-name="Laag 3"><rect class="cls-1" x="649.99" y="305.08" width="215.73" height="213.75"/><rect class="cls-2" x="38.26" y="17.63" width="1046.66" height="930.5"/><polygon class="cls-3" points="434.65 518.67 486.05 375.51 726.77 375.51 726.77 518.67 434.65 518.67"/><polygon class="cls-4" points="559.55 160.77 610.5 17.62 658.38 17.62 658.38 160.78 559.55 160.77"/><polygon class="cls-4" points="507.41 948.14 558.36 804.98 767.41 804.98 767.41 948.14 507.41 948.14"/><path class="cls-4" d="M658.06,17.63a253.4,253.4,0,0,0-37,2.74l-50,140.39h75.55a115,115,0,0,1,12.4-.72c59.84,0,108.37,48.27,108.37,107.83S718.89,375.69,659.05,375.69c-2,0-4-.08-5.95-.18h-167l-21.27,59.77C510.63,485,585,516.13,658.06,516.13c138.35,0,250.52-111.58,250.52-249.25S796.41,17.63,658.06,17.63Z"/><path class="cls-3" d="M787.72,415.52A265.84,265.84,0,0,0,577.18,518.76H765.59c1.18,0,2.35-.09,3.53-.09a143.16,143.16,0,1,1,0,286.31c-1.18,0-2.36-.06-3.54-.09H567.18C611.62,890,685,948.14,787.72,948.14,934.8,948.14,1054,828.91,1054,681.83S934.8,415.52,787.72,415.52Z"/><path class="cls-3" d="M141.85,876.56A143.17,143.17,0,0,1,276.93,733.64l254.83-716H369.43L38.26,948.15h122.8A142.46,142.46,0,0,1,141.85,876.56Z"/><path class="cls-4" d="M409,805a143,143,0,0,1,0,143.16H508.6L559.55,805Z"/><circle class="cls-4" cx="285.01" cy="876.56" r="92.37"/></g></svg>