<svg width="28" height="40" viewBox="0 0 28 40" fill="none" xmlns="http://www.w3.org/2000/svg">
<path d="M27.0537 24.9404C27.0537 26.5843 26.7119 28.0817 26.0283 29.4326C25.361 30.7835 24.4577 32.0042 23.3184 33.0947C22.1953 34.1689 20.9014 35.1048 19.4365 35.9023C17.988 36.6999 16.4743 37.3672 14.8955 37.9043C13.333 38.4577 11.7624 38.8727 10.1836 39.1494C8.62109 39.4424 7.17253 39.6133 5.83789 39.6621L5.49609 38.4414C6.57031 38.2135 7.70964 37.9124 8.91406 37.5381C10.1185 37.18 11.3066 36.7324 12.4785 36.1953C13.6667 35.6745 14.7897 35.0641 15.8477 34.3643C16.9219 33.6644 17.8659 32.8669 18.6797 31.9717C19.4935 31.0602 20.1364 30.0592 20.6084 28.9688C21.0967 27.862 21.3408 26.6413 21.3408 25.3066C21.3408 24.2975 21.1048 23.3861 20.6328 22.5723C20.1771 21.7422 19.5749 21.0423 18.8262 20.4727C18.0938 19.8867 17.2555 19.4391 16.3115 19.1299C15.3838 18.8044 14.4479 18.6416 13.5039 18.6416C12.3809 18.6416 11.2741 18.7799 10.1836 19.0566C9.0931 19.3171 8.01888 19.6507 6.96094 20.0576L6.5459 19.0566C7.27832 18.7311 8.05143 18.3405 8.86523 17.8848C9.69531 17.429 10.501 16.9245 11.2822 16.3711C12.0798 15.8014 12.8366 15.1829 13.5527 14.5156C14.2689 13.832 14.8955 13.1077 15.4326 12.3428C15.986 11.5615 16.4255 10.7477 16.751 9.90137C17.0765 9.03874 17.2393 8.13542 17.2393 7.19141C17.2393 6.58919 17.1416 6.04395 16.9463 5.55566C16.7673 5.05111 16.4987 4.61979 16.1406 4.26172C15.7826 3.88737 15.3512 3.60254 14.8467 3.40723C14.3584 3.19564 13.8132 3.08984 13.2109 3.08984C12.2344 3.08984 11.3717 3.30143 10.623 3.72461C9.89062 4.14779 9.24772 4.70931 8.69434 5.40918C8.15723 6.10905 7.7015 6.91471 7.32715 7.82617C6.96908 8.72135 6.67611 9.64095 6.44824 10.585C6.23665 11.529 6.08203 12.4648 5.98438 13.3926C5.88672 14.304 5.83789 15.126 5.83789 15.8584V34.7061L0.808594 36.4883V18.5439C0.808594 16.9652 0.98763 15.4271 1.3457 13.9297C1.70378 12.4323 2.21647 11.0163 2.88379 9.68164C3.56738 8.33073 4.38932 7.09375 5.34961 5.9707C6.32617 4.84766 7.41667 3.88737 8.62109 3.08984C9.8418 2.27604 11.1683 1.64128 12.6006 1.18555C14.0492 0.729818 15.5791 0.501953 17.1904 0.501953C17.9229 0.501953 18.6309 0.599609 19.3145 0.794922C19.998 0.990234 20.5921 1.29134 21.0967 1.69824C21.6175 2.10514 22.0326 2.6097 22.3418 3.21191C22.651 3.81413 22.8057 4.514 22.8057 5.31152C22.8057 6.17415 22.6266 7.02865 22.2686 7.875C21.9268 8.70508 21.4629 9.51888 20.877 10.3164C20.291 11.1139 19.6237 11.8789 18.875 12.6113C18.1263 13.3275 17.3451 13.9948 16.5312 14.6133C15.7337 15.2318 14.9362 15.7852 14.1387 16.2734C13.3411 16.7617 12.6087 17.1686 11.9414 17.4941C13.6016 17.1035 15.3024 16.9082 17.0439 16.9082C18.3135 16.9082 19.5423 17.0628 20.7305 17.3721C21.9349 17.665 23.001 18.137 23.9287 18.7881C24.8727 19.4229 25.6296 20.2529 26.1992 21.2783C26.7689 22.2874 27.0537 23.5081 27.0537 24.9404Z" fill="#37B8E1"/>
</svg>
